<svg id="Layer_1" data-name="Layer 1" xmlns="http://www.w3.org/2000/svg" viewBox="0 0 500 500"><title>Artboard 1</title><path d="M300,300V275a12.5,12.5,0,0,0-12.5-12.5h-125A12.5,12.5,0,0,1,150,250V175a12.5,12.5,0,0,1,12.5-12.5h125A12.5,12.5,0,0,0,300,150V125a12.5,12.5,0,0,0-12.5-12.5h-175A12.5,12.5,0,0,0,100,125V300a12.5,12.5,0,0,0,12.5,12.5h175A12.5,12.5,0,0,0,300,300Z"/><path d="M400,200a12.5,12.5,0,0,0-12.5-12.5h-200A12.5,12.5,0,0,0,175,200v25a12.5,12.5,0,0,0,12.5,12.5h125A12.5,12.5,0,0,1,325,250v75a12.5,12.5,0,0,1-12.5,12.5h-200A12.5,12.5,0,0,0,100,350v25a12.5,12.5,0,0,0,12.5,12.5h250A12.5,12.5,0,0,0,375,375V250a12.5,12.5,0,0,1,12.5-12.5h0A12.5,12.5,0,0,0,400,225Z"/></svg>